<?xml version="1.0" encoding="UTF-8" standalone="no"?>
<svg width="40px" height="29px" viewBox="0 0 40 29" version="1.1" xmlns="http://www.w3.org/2000/svg" xmlns:xlink="http://www.w3.org/1999/xlink" xmlns:sketch="http://www.bohemiancoding.com/sketch/ns">
    <!-- Generator: Sketch 3.5.2 (25235) - http://www.bohemiancoding.com/sketch -->
    <title>Group 13</title>
    <desc>Created with Sketch.</desc>
    <defs></defs>
    <g id="Page-1" stroke="none" stroke-width="1" fill="none" fill-rule="evenodd" sketch:type="MSPage">
        <g id="Desktop-HD" sketch:type="MSArtboardGroup" transform="translate(-420.000000, -877.000000)" fill="#0026FF">
            <g id="Group-11" sketch:type="MSLayerGroup" transform="translate(420.000000, 484.000000)">
                <g id="Group-2" transform="translate(0.000000, 388.000000)" sketch:type="MSShapeGroup">
                    <g id="Group-8" transform="translate(0.000000, 5.000000)">
                        <g id="Group-13">
                            <path d="M23.4508884,2.24908313 C23.0589126,2.5663969 22.7913776,3.05169303 22.6482753,3.70498607 C22.505173,4.35827912 22.4336229,5.33820399 22.4336229,6.64479009 L22.4336229,16.7801144 C22.4336229,20.4261118 21.9109963,23.1263492 20.8657274,24.8809077 C20.1688815,26.0132823 19.1734023,26.8905484 17.8792599,27.5127322 C16.5851175,28.1349161 14.9923507,28.4460033 13.1009118,28.4460033 C10.164204,28.4460033 7.86837998,27.8051636 6.21337093,26.5234648 C5.40453192,25.8763936 4.78546827,25.1235625 4.35616141,24.2649487 C3.92685455,23.406335 3.63443253,22.4015232 3.47888656,21.250483 C3.3233406,20.0994429 3.24556878,18.6466654 3.24556878,16.8921069 L3.24556878,4.89024039 C3.24556878,3.93207725 3.17401872,3.23524179 3.03091643,2.79971309 C2.88781414,2.36418439 2.6202791,2.06554062 2.22830327,1.90377282 C1.83632744,1.74200502 1.21726379,1.6424571 0.37109375,1.60512606 L0.37109375,0.83984375 C1.67767984,0.914505813 3.66241657,0.951836284 6.32536347,0.951836284 C8.96342301,0.951836284 10.9917119,0.914505813 12.4102911,0.83984375 L12.4102911,1.60512606 C11.489459,1.6424571 10.8206214,1.74200502 10.4037582,1.90377282 C9.98689506,2.06554062 9.70069478,2.36418439 9.54514881,2.79971309 C9.38960285,3.23524179 9.31183103,3.93207725 9.31183103,4.89024039 L9.31183103,19.2999464 C9.31183103,21.0918359 9.47359641,22.5508352 9.79713201,23.6769879 C10.1206676,24.8031407 10.6650703,25.6555198 11.4303565,26.2341508 C12.1956426,26.8127818 13.2502284,27.1020929 14.5941455,27.1020929 C17.1326557,27.1020929 18.9276292,26.2434921 19.9791199,24.5262647 C21.0306106,22.8090372 21.5563481,20.3701131 21.5563481,17.2094191 L21.5563481,7.11142564 C21.5563481,5.63062807 21.4661328,4.53249004 21.2856994,3.81697861 C21.1052661,3.10146718 20.7599593,2.58195145 20.2497685,2.25841585 C19.7395777,1.93488024 18.9369726,1.71711916 17.841929,1.60512606 L17.841929,0.83984375 C18.8000922,0.914505813 20.1750979,0.951836284 21.9669874,0.951836284 C23.3855665,0.951836284 24.4930372,0.914505813 25.2894325,0.83984375 L25.2894325,1.60512606 C24.4557062,1.71711916 23.8428643,1.93176937 23.4508884,2.24908313 L23.4508884,2.24908313 Z M37.2166374,1.90377282 C36.8308834,2.06554062 36.5695701,2.36418439 36.4326896,2.79971309 C36.2958092,3.23524179 36.22737,3.93207725 36.22737,4.89024039 L36.22737,23.8543095 C36.22737,24.8124726 36.2958092,25.5093081 36.4326896,25.9448368 C36.5695701,26.3803654 36.8308834,26.6790092 37.2166374,26.840777 C37.6023914,27.0025448 38.2245659,27.1020927 39.0831796,27.1394238 L39.0831796,27.9047061 C37.7268188,27.830044 35.8042995,27.7927136 33.3155641,27.7927136 C30.5903988,27.7927136 28.5807751,27.830044 27.2866327,27.9047061 L27.2866327,27.1394238 C28.1328028,27.1020927 28.7487555,27.0025448 29.1345095,26.840777 C29.5202635,26.6790092 29.7846877,26.3803654 29.92779,25.9448368 C30.0708923,25.5093081 30.1424423,24.8124726 30.1424423,23.8543095 L30.1424423,4.89024039 C30.1424423,3.93207725 30.0708923,3.23524179 29.92779,2.79971309 C29.7846877,2.36418439 29.5202635,2.06554062 29.1345095,1.90377282 C28.7487555,1.74200502 28.1328028,1.6424571 27.2866327,1.60512606 L27.2866327,0.83984375 C28.5683315,0.914505813 30.5779552,0.951836284 33.3155641,0.951836284 C35.8042995,0.951836284 37.7268188,0.914505813 39.0831796,0.83984375 L39.0831796,1.60512606 C38.2245659,1.6424571 37.6023914,1.74200502 37.2166374,1.90377282 L37.2166374,1.90377282 Z" id="UI"></path>
                        </g>
                    </g>
                </g>
            </g>
        </g>
    </g>
</svg>