<?xml version="1.0" encoding="UTF-8" standalone="no"?>
<svg width="39px" height="28px" viewBox="0 0 39 28" version="1.1" xmlns="http://www.w3.org/2000/svg" xmlns:xlink="http://www.w3.org/1999/xlink">
    <!-- Generator: Sketch 40.1 (33804) - http://www.bohemiancoding.com/sketch -->
    <title>UI</title>
    <desc>Created with Sketch.</desc>
    <defs></defs>
    <g id="Page-1" stroke="none" stroke-width="1" fill="none" fill-rule="evenodd">
        <g id="Desktop-HD" transform="translate(-168.000000, -878.000000)" fill="#FFFFFF">
            <g id="Group-11" transform="translate(168.000000, 484.000000)">
                <g id="Group-2" transform="translate(0.000000, 388.000000)">
                    <g id="Group-8" transform="translate(0.000000, 5.000000)">
                        <g id="Group-13" transform="translate(0.000000, 1.000000)">
                            <path d="M23.0797947,1.40923938 C22.6878189,1.72655315 22.4202838,2.21184928 22.2771815,2.86514232 C22.1340792,3.51843537 22.0625292,4.49836024 22.0625292,5.80494634 L22.0625292,15.9402706 C22.0625292,19.586268 21.5399026,22.2865055 20.4946337,24.0410639 C19.7977878,25.1734385 18.8023085,26.0507046 17.5081661,26.6728885 C16.2140237,27.2950723 14.6212569,27.6061596 12.729818,27.6061596 C9.79311022,27.6061596 7.49728623,26.9653198 5.84227718,25.6836211 C5.03343817,25.0365499 4.41437452,24.2837187 3.98506766,23.425105 C3.5557608,22.5664913 3.26333878,21.5616794 3.10779281,20.4106393 C2.95224685,19.2595992 2.87447503,17.8068217 2.87447503,16.0522632 L2.87447503,4.05039664 C2.87447503,3.0922335 2.80292497,2.39539804 2.65982268,1.95986934 C2.51672039,1.52434064 2.24918535,1.22569687 1.85720952,1.06392907 C1.46523369,0.902161269 0.846170042,0.802613346 0,0.765282315 L0,0 C1.30658609,0.0746620625 3.29132282,0.111992534 5.95426972,0.111992534 C8.59232926,0.111992534 10.6206182,0.0746620625 12.0391974,0 L12.0391974,0.765282315 C11.1183653,0.802613346 10.4495277,0.902161269 10.0326645,1.06392907 C9.61580131,1.22569687 9.32960103,1.52434064 9.17405506,1.95986934 C9.0185091,2.39539804 8.94073728,3.0922335 8.94073728,4.05039664 L8.94073728,18.4601027 C8.94073728,20.2519922 9.10250266,21.7109914 9.42603826,22.8371442 C9.74957387,23.963297 10.2939766,24.8156761 11.0592627,25.394307 C11.8245489,25.972938 12.8791347,26.2622492 14.2230518,26.2622492 C16.7615619,26.2622492 18.5565354,25.4036483 19.6080261,23.6864209 C20.6595168,21.9691935 21.1852543,19.5302693 21.1852543,16.3695754 L21.1852543,6.27158189 C21.1852543,4.79078432 21.095039,3.69264629 20.9146057,2.97713486 C20.7341724,2.26162343 20.3888655,1.7421077 19.8786748,1.4185721 C19.368484,1.09503649 18.5658789,0.877275408 17.4708353,0.765282315 L17.4708353,0 C18.4289984,0.0746620625 19.8040041,0.111992534 21.5958936,0.111992534 C23.0144728,0.111992534 24.1219434,0.0746620625 24.9183388,0 L24.9183388,0.765282315 C24.0846124,0.877275408 23.4717705,1.09192562 23.0797947,1.40923938 L23.0797947,1.40923938 Z M36.8455436,1.06392907 C36.4597896,1.22569687 36.1984763,1.52434064 36.0615959,1.95986934 C35.9247154,2.39539804 35.8562762,3.0922335 35.8562762,4.05039664 L35.8562762,23.0144657 C35.8562762,23.9726288 35.9247154,24.6694643 36.0615959,25.104993 C36.1984763,25.5405217 36.4597896,25.8391655 36.8455436,26.0009333 C37.2312976,26.1627011 37.8534721,26.262249 38.7120859,26.29958 L38.7120859,27.0648623 C37.3557251,26.9902003 35.4332058,26.9528698 32.9444704,26.9528698 C30.2193051,26.9528698 28.2096814,26.9902003 26.915539,27.0648623 L26.915539,26.29958 C27.761709,26.262249 28.3776618,26.1627011 28.7634158,26.0009333 C29.1491698,25.8391655 29.4135939,25.5405217 29.5566962,25.104993 C29.6997985,24.6694643 29.7713486,23.9726288 29.7713486,23.0144657 L29.7713486,4.05039664 C29.7713486,3.0922335 29.6997985,2.39539804 29.5566962,1.95986934 C29.4135939,1.52434064 29.1491698,1.22569687 28.7634158,1.06392907 C28.3776618,0.902161269 27.761709,0.802613346 26.915539,0.765282315 L26.915539,0 C28.1972377,0.0746620625 30.2068614,0.111992534 32.9444704,0.111992534 C35.4332058,0.111992534 37.3557251,0.0746620625 38.7120859,0 L38.7120859,0.765282315 C37.8534721,0.802613346 37.2312976,0.902161269 36.8455436,1.06392907 L36.8455436,1.06392907 Z" id="UI"></path>
                        </g>
                    </g>
                </g>
            </g>
        </g>
    </g>
</svg>