<?xml version="1.0" encoding="UTF-8" standalone="no"?>
<svg width="36px" height="36px" viewBox="0 0 36 36" version="1.1" xmlns="http://www.w3.org/2000/svg" xmlns:xlink="http://www.w3.org/1999/xlink" xmlns:sketch="http://www.bohemiancoding.com/sketch/ns">
    <!-- Generator: Sketch 3.5.2 (25235) - http://www.bohemiancoding.com/sketch -->
    <title>Page 1</title>
    <desc>Created with Sketch.</desc>
    <defs>
        <path id="path-1" d="M0,0.1647 L35.118675,0.1647 L35.118675,36 L0,36 L0,0.1647 Z"></path>
    </defs>
    <g id="Page-1" stroke="none" stroke-width="1" fill="none" fill-rule="evenodd" sketch:type="MSPage">
        <g id="Desktop-HD" sketch:type="MSArtboardGroup" transform="translate(-420.000000, -996.000000)">
            <g id="Group-11" sketch:type="MSLayerGroup" transform="translate(420.000000, 484.000000)">
                <g id="Group-2-Copy" transform="translate(0.000000, 512.000000)">
                    <g id="Group-7">
                        <g id="Page-1">
                            <mask id="mask-2" sketch:name="Clip 2" fill="white">
                                <use xlink:href="#path-1"></use>
                            </mask>
                            <g id="Clip-2"></g>
                            <path d="M17.917695,15.5227725 L17.917695,21.6659475 L28.079595,21.6659475 C27.670095,24.3024975 25.007895,29.3960475 17.917695,29.3960475 C11.80017,29.3960475 6.80877,24.3279225 6.80877,18.0823725 C6.80877,11.8368225 11.80017,6.7686975 17.917695,6.7686975 C21.398895,6.7686975 23.728095,8.2532475 25.059195,9.5332725 L29.92257,4.8489975 C26.79957,1.9309725 22.75542,0.1647225 17.917695,0.1647225 C8.011845,0.1647225 4.5e-05,8.1765225 4.5e-05,18.0823725 C4.5e-05,27.9882225 8.011845,36.0000225 17.917695,36.0000225 C28.258695,36.0000225 35.11872,28.7307225 35.11872,18.4918725 C35.11872,17.3144475 34.990695,16.4184975 34.83702,15.5227725 L17.917695,15.5227725 Z" id="Fill-1" fill="#4285F4" sketch:type="MSShapeGroup" mask="url(#mask-2)"></path>
                        </g>
                    </g>
                </g>
            </g>
        </g>
    </g>
</svg>