<?xml version="1.0" encoding="UTF-8" standalone="no"?>
<svg width="161px" height="24px" viewBox="0 0 161 24" version="1.1" xmlns="http://www.w3.org/2000/svg" xmlns:xlink="http://www.w3.org/1999/xlink">
    <!-- Generator: Sketch 40.1 (33804) - http://www.bohemiancoding.com/sketch -->
    <title>Group</title>
    <desc>Created with Sketch.</desc>
    <defs></defs>
    <g id="Page-1" stroke="none" stroke-width="1" fill="none" fill-rule="evenodd">
        <g id="Artboard" transform="translate(-252.000000, -12.000000)" fill="#FFFFFF">
            <g id="Group" transform="translate(252.000000, 12.000000)">
                <path d="M10.3319465,15.7958672 C9.47781019,15.9557162 7.45349999,16.17552 5.7438668,15.1372709 C4.90388148,14.4016936 4.09809426,13.6044408 3.34192605,12.7608181 L10.9114093,5.06007849 C11.5999977,5.72836528 12.6365541,6.69887094 13.8142571,7.68268981 C15.5287887,9.11490113 17.0382224,10.1498898 18.3178847,10.7720785 C15.4736363,13.1294219 12.7910352,14.8174823 10.3319465,15.7958672 L10.3319465,15.7958672 Z M14.6344674,20.2710974 C13.1740177,19.7789615 11.7543881,19.1536936 10.3980749,18.4062521 C12.0705165,17.8304332 13.8279545,16.9589162 15.6413612,15.8049238 C17.8798405,14.3805011 20.2284431,12.5146596 22.6220384,10.2592936 C25.3609711,7.67861434 27.5507384,5.15055396 28.6761011,3.7909766 L37.1830842,11.9931804 C36.4948586,12.9350672 35.1549641,14.6072785 33.2411401,16.2744181 C31.5341375,17.7614219 29.7147438,18.9501917 27.8335758,19.8074898 C25.5072882,20.8674747 23.0752313,21.4215577 20.6046222,21.4541615 C20.4365345,21.4524408 18.0035705,21.406886 14.6344674,20.2710974 L14.6344674,20.2710974 Z M28.4222912,0.113633208 L27.5792217,1.21355774 C27.5569068,1.24272 25.3177926,4.14807849 22.0052932,7.42050113 L22.0019369,7.41733132 C21.9819805,7.43481057 19.976266,9.13500679 17.076321,7.09482566 L17.072239,7.09971623 C14.9305486,5.53174642 12.7495802,3.44329358 11.7934846,2.45087094 L10.9112279,1.53488604 L3.62844632e-05,12.6354747 L0.710758206,13.4928634 C2.67782966,15.8663275 4.94207088,17.8916558 7.44043759,19.5125162 C9.44188857,20.8108709 11.5961879,21.8531955 13.8433754,22.6105992 C17.6935198,23.9084106 20.4915961,23.923354 20.6126048,23.923354 L20.6243973,23.9232634 C23.4448793,23.8877615 26.2159238,23.2587804 28.8604261,22.0537087 C30.9588474,21.0974219 32.9798012,19.7790521 34.8670469,18.1350068 C38.0715092,15.3435804 39.7773326,12.5910068 39.8482687,12.4754445 L40.3671365,11.6304634 L28.4222912,0.113633208 L28.4222912,0.113633208 Z" id="Shape"></path>
                <g transform="translate(47.000000, 1.000000)" id="Shape">
                    <polygon points="12.0725063 19.4154992 12.0725063 11.3022526 3.48381682 11.3022526 3.48381682 19.4154992 0.761830364 19.4154992 0.761830364 1.4080215 3.48381682 1.4080215 3.48381682 8.95401361 12.0725063 8.95401361 12.0725063 1.4080215 14.7944161 1.4080215 14.7944161 19.4154992"></polygon>
                    <path d="M26.5142755,14.7058406 L26.5142755,13.2415112 L23.3033972,13.2415112 C21.5196355,13.2415112 20.7267673,14.0990138 20.7267673,15.2995021 C20.7267673,16.8298109 21.9952644,17.5290241 23.3562959,17.5290241 C25.1533206,17.5290241 26.5142755,16.3153706 26.5142755,14.7058406 M22.5766908,19.6397526 C19.8811537,19.6397526 18.0313069,18.0039687 18.0313069,15.4313844 C18.0313069,12.9776702 19.7357971,11.3550515 22.9334125,11.3550515 L26.5142755,11.3550515 L26.5142755,9.79833563 C26.5142755,8.17564039 25.5496781,7.48966894 23.8187385,7.48966894 C22.0481631,7.48966894 21.2421086,8.30759919 21.110015,9.5740669 L18.5465715,9.5740669 C18.6654788,7.13351795 20.2511384,5.28655398 23.9244593,5.28655398 C27.0825156,5.28655398 29.1833632,6.60583583 29.1833632,9.82474269 L29.1833632,19.4154839 L26.6463691,19.4154839 L26.6463691,17.5950035 L26.5539113,17.5950035 C25.9064764,18.6766983 24.6379793,19.6397526 22.5766908,19.6397526"></path>
                    <polygon points="33.0545639 19.4154686 35.7104652 19.4154686 35.7104652 0.458178378 33.0545639 0.458178378"></polygon>
                    <path d="M40.5596183,7.71393767 L38.5644149,7.71393767 L38.5644149,5.56363685 L40.5596183,5.56363685 L40.5596183,4.17845215 C40.5596183,1.4739856 41.9338363,0.27349729 44.9200866,0.27349729 C45.501513,0.27349729 45.8582347,0.326234885 46.1093121,0.352641954 L46.1093121,2.41063284 C45.9111334,2.39746758 45.7393274,2.37106051 45.3428933,2.37106051 C43.9025903,2.37106051 43.1890703,2.83283977 43.1890703,4.38947907 L43.1890703,5.56363685 L45.8979471,5.56363685 L45.8979471,7.71393767 L43.228706,7.71393767 L43.228706,19.4154839 L40.5596183,19.4154839 L40.5596183,7.71393767 Z"></path>
                    <path d="M50.3637605,11.96184 L50.3637605,12.9381361 C50.3637605,15.6029538 51.4604515,17.3971036 53.7728176,17.3971036 C55.9001912,17.3971036 57.1686116,15.7876502 57.1686116,12.9644666 L57.1686116,11.8826953 C57.1686116,9.20463583 55.8869282,7.529203 53.7199955,7.529203 C51.4340022,7.529203 50.3637605,9.34983644 50.3637605,11.96184 M57.0894168,7.46330014 L57.1686116,7.46330014 L57.1686116,0.458155415 L59.837776,0.458155415 L59.837776,19.4155222 L57.2610695,19.4155222 L57.2610695,17.3047171 L57.1686116,17.3047171 C56.8250763,18.4920402 55.3187648,19.6133838 53.0592976,19.6133838 C49.5445196,19.6133838 47.6549604,17.0672831 47.6549604,13.2942871 L47.6549604,11.6188543 C47.6549604,7.9118376 49.5313332,5.28659226 53.0592976,5.28659226 C55.2394933,5.28659226 56.6268209,6.26281183 57.0894168,7.46330014"></path>
                    <path d="M65.7438311,12.0806182 L65.7438311,12.8325691 C65.7438311,15.2863598 66.5497323,17.4366606 69.1925239,17.4366606 C71.8351623,17.4366606 72.601581,15.2863598 72.601581,12.8325691 L72.601581,12.0806182 C72.601581,9.65315798 71.8218992,7.46328483 69.1925239,7.46328483 C66.5629953,7.46328483 65.7438311,9.65315798 65.7438311,12.0806182 M75.2971181,11.9090871 L75.2971181,12.9776931 C75.2971181,16.9485508 73.3282107,19.6529408 69.1925239,19.6529408 C65.0566838,19.6529408 63.0746668,16.9881232 63.0746668,12.9776931 L63.0746668,11.9222523 C63.0746668,8.13609102 65.0566838,5.27341168 69.1925239,5.27341168 C73.3282107,5.27341168 75.2971181,8.01737402 75.2971181,11.9090871"></path>
                    <polygon points="78.5737213 19.4154686 81.229546 19.4154686 81.229546 0.458178378 78.5737213 0.458178378"></polygon>
                    <polygon points="85.2727749 19.4154686 87.9285996 19.4154686 87.9285996 0.458178378 85.2727749 0.458178378"></polygon>
                    <path d="M99.5958362,14.7058406 L99.5958362,13.2415112 L96.3848812,13.2415112 C94.6011195,13.2415112 93.808328,14.0990138 93.808328,15.2995021 C93.808328,16.8298109 95.076825,17.5290241 96.4378566,17.5290241 C98.2348047,17.5290241 99.5958362,16.3153706 99.5958362,14.7058406 M95.6581748,19.6397526 C92.9626377,19.6397526 91.1128676,18.0039687 91.1128676,15.4313844 C91.1128676,12.9776702 92.8173578,11.3550515 96.0149731,11.3550515 L99.5958362,11.3550515 L99.5958362,9.79833563 C99.5958362,8.17564039 98.6312387,7.48966894 96.9002991,7.48966894 C95.1296471,7.48966894 94.3236693,8.30759919 94.191499,9.5740669 L91.6281322,9.5740669 C91.7469628,7.13351795 93.3326224,5.28655398 97.0059433,5.28655398 C100.163923,5.28655398 102.264924,6.60583583 102.264924,9.82474269 L102.264924,19.4154839 L99.7279298,19.4154839 L99.7279298,17.5950035 L99.635472,17.5950035 C98.9880371,18.6766983 97.71954,19.6397526 95.6581748,19.6397526"></path>
                    <path d="M106.241769,5.51082271 L108.89767,5.51082271 L108.89767,7.22582788 L108.990128,7.22582788 C109.373376,6.3815671 110.073633,5.29971925 112.372812,5.29971925 C112.716348,5.29971925 113.033434,5.32620286 113.297697,5.36569865 L113.297697,7.75351 C113.059883,7.7007724 112.570991,7.67436534 112.108548,7.67436534 C109.716911,7.67436534 108.937306,9.09912237 108.937306,10.9724169 L108.937306,19.4154839 L106.241769,19.4154839 L106.241769,5.51082271 Z"></path>
                </g>
            </g>
        </g>
    </g>
</svg>