<?xml version="1.0" encoding="utf-8"?>
<!-- Generator: Adobe Illustrator 19.2.1, SVG Export Plug-In . SVG Version: 6.00 Build 0)  -->
<svg version="1.1" id="Layer_1" xmlns="http://www.w3.org/2000/svg" xmlns:xlink="http://www.w3.org/1999/xlink" x="0px" y="0px"
	 viewBox="0 0 3000 3000" style="enable-background:new 0 0 3000 3000;" xml:space="preserve">
<style type="text/css">
	.st0{fill:#CC8E3B;}
	.st1{fill:#FBFDFF;}
</style>
<path class="st0" d="M2104.5,2998.6h-1209c-493.8,0-894.1-400.3-894.1-894.1v-1209C1.4,401.7,401.7,1.4,895.5,1.4h1209
	c493.8,0,894.1,400.3,894.1,894.1v1209C2998.6,2598.3,2598.3,2998.6,2104.5,2998.6z"/>
<path class="st1" d="M1917.2,896.2l-42.7,55.8c-1.1,1.5-114.5,148.8-282.3,314.8l-0.2-0.2c-1,0.9-102.6,87.1-249.4-16.4l-0.2,0.2
	c-108.5-79.5-218.9-185.5-267.3-235.8l-44.7-46.5l-552.5,563l36,43.5c99.6,120.4,214.3,223.1,340.8,305.3
	c101.4,65.9,210.4,118.7,324.2,157.1c195,65.8,336.7,66.6,342.8,66.6l0.6,0c142.8-1.8,283.1-33.7,417.1-94.8
	c106.3-48.5,208.6-115.4,304.2-198.8c162.3-141.6,248.7-281.2,252.2-287.1l26.3-42.9L1917.2,896.2z M1219,1918.6
	c-74-25-145.8-56.7-214.5-94.6c84.7-29.2,173.7-73.4,265.5-131.9c113.4-72.2,232.3-166.9,353.5-281.3
	c138.7-130.9,249.6-259.1,306.6-328.1l430.8,416c-34.9,47.8-102.7,132.6-199.6,217.1c-86.4,75.4-178.6,135.7-273.8,179.2
	c-117.8,53.8-241,81.9-366.1,83.5C1512.8,1978.5,1389.6,1976.2,1219,1918.6z M1001.1,1691.6c-43.3,8.1-145.8,19.3-232.3-33.4
	c-42.5-37.3-83.3-77.7-121.6-120.5l383.3-390.6c34.9,33.9,87.4,83.1,147,133c86.8,72.6,163.3,125.1,228.1,156.7
	C1261.5,1556.3,1125.6,1642,1001.1,1691.6z"/>
</svg>
