<?xml version="1.0" encoding="UTF-8" standalone="no"?>
<svg width="93px" height="27px" viewBox="0 0 93 27" version="1.1" xmlns="http://www.w3.org/2000/svg" xmlns:xlink="http://www.w3.org/1999/xlink">
    <!-- Generator: Sketch 40.1 (33804) - http://www.bohemiancoding.com/sketch -->
    <title>Shape</title>
    <desc>Created with Sketch.</desc>
    <defs></defs>
    <g id="Page-1" stroke="none" stroke-width="1" fill="none" fill-rule="evenodd">
        <g id="Desktop-HD" transform="translate(-1249.000000, -1521.000000)" fill="#FFFFFF">
            <path d="M1258.51172,1521.94531 C1253.27344,1521.94531 1249.82812,1525.44336 1249.82812,1530.68164 L1249.82812,1532.50977 C1249.82812,1538.1875 1253.23828,1541.33398 1258.51172,1541.33398 C1263.71484,1541.33398 1267.14258,1538.15234 1267.14258,1532.49219 L1267.14258,1530.66406 C1267.14258,1525.33789 1263.71484,1521.94531 1258.51172,1521.94531 L1258.51172,1521.94531 Z M1258.49414,1525.86523 C1260.99023,1525.86523 1262.13281,1528.08008 1262.13281,1530.7168 L1262.13281,1532.54492 C1262.13281,1535.09375 1261.06055,1537.41406 1258.49414,1537.41406 C1255.91016,1537.41406 1254.82031,1535.07617 1254.82031,1532.54492 L1254.82031,1530.7168 C1254.82031,1528.09766 1256.01562,1525.86523 1258.49414,1525.86523 L1258.49414,1525.86523 Z M1270.95703,1527.85156 C1270.95703,1531.50781 1273.66406,1532.75586 1276.98633,1533.40625 C1279.39453,1533.86328 1281.60938,1534.05664 1281.60938,1535.76172 C1281.60938,1536.92188 1280.69531,1537.87109 1278.51562,1537.87109 C1276.54688,1537.87109 1275.54492,1536.99219 1275.38672,1535.74414 L1270.58789,1535.74414 C1270.58789,1539.08398 1273.41797,1541.33398 1278.28711,1541.33398 C1283.40234,1541.33398 1286.4082,1538.99609 1286.4082,1535.16406 C1286.4082,1531.78906 1283.98242,1530.43555 1280.53711,1529.85547 C1278.5332,1529.52148 1275.66797,1529.27539 1275.66797,1527.44727 C1275.66797,1526.2168 1276.74023,1525.37305 1278.49805,1525.37305 C1280.39648,1525.37305 1281.3457,1526.46289 1281.46875,1527.5 L1285.82812,1527.5 C1285.82812,1523.89648 1282.82227,1521.94531 1278.58594,1521.94531 C1274.54297,1521.94531 1270.95703,1523.61523 1270.95703,1527.85156 L1270.95703,1527.85156 Z M1301.89453,1541 L1305.23438,1541 L1298.83594,1531.57812 L1305.12891,1522.56055 L1301.94727,1522.56055 L1297.39453,1529.55664 L1297.27148,1529.55664 L1292.85938,1522.56055 L1289.51953,1522.56055 L1295.8125,1531.89453 L1289.55469,1541 L1292.70117,1541 L1297.25391,1533.98633 L1297.35938,1533.98633 L1301.89453,1541 Z M1324.21875,1522.56055 L1321.2832,1522.56055 L1316.13281,1538.13477 L1316.00977,1538.13477 L1310.85938,1522.56055 L1307.7832,1522.56055 L1314.65625,1541.29883 L1314.35742,1542.35352 C1313.8125,1544.28711 1312.88086,1545.37695 1310.70117,1545.37695 C1310.29688,1545.37695 1309.64648,1545.3418 1309.36523,1545.28906 L1309.36523,1547.62695 C1309.82227,1547.69727 1310.52539,1547.76758 1311.14062,1547.76758 C1314.86719,1547.76758 1316.09766,1545.14844 1317.08203,1542.47656 L1317.55664,1541.19336 L1324.21875,1522.56055 Z M1327.80469,1541 L1341.35742,1541 L1341.35742,1538.52148 L1331.25,1538.52148 L1331.25,1538.36328 L1341.28711,1524.51172 L1341.28711,1522.56055 L1327.73438,1522.56055 L1327.73438,1525.00391 L1337.82422,1525.00391 L1337.82422,1525.17969 L1327.80469,1539.03125 L1327.80469,1541 Z" id="Shape"></path>
        </g>
    </g>
</svg>