<?xml version="1.0" encoding="utf-8"?>
<!-- Generator: Adobe Illustrator 19.2.1, SVG Export Plug-In . SVG Version: 6.00 Build 0)  -->
<svg version="1.1" xmlns="http://www.w3.org/2000/svg" xmlns:xlink="http://www.w3.org/1999/xlink" x="0px" y="0px"
	 viewBox="0 0 887.9 218" style="enable-background:new 0 0 887.9 218;" xml:space="preserve">
<style type="text/css">
	.st0{display:none;}
	.st1{display:inline;fill-rule:evenodd;clip-rule:evenodd;fill:#C9D3DC;}
	.st2{display:inline;}
	.st3{fill-rule:evenodd;clip-rule:evenodd;fill:#C9D3DC;}
	.st4{display:inline;fill-rule:evenodd;clip-rule:evenodd;fill:#1D96F3;}
	.st5{display:inline;fill-rule:evenodd;clip-rule:evenodd;fill:#FFFFFF;}
	.st6{fill-rule:evenodd;clip-rule:evenodd;fill:#FFFFFF;}
	.st7{display:inline;fill-rule:evenodd;clip-rule:evenodd;fill:#565E66;}
	.st8{fill-rule:evenodd;clip-rule:evenodd;fill:#565E66;}
	.st9{fill-rule:evenodd;clip-rule:evenodd;fill:#1D96F3;}
</style>
<g id="Layer_1" class="st0">
	<path class="st1" d="M566.7,97.4c0-9.6,3.1-18.1,9.9-24.9c7.1-7.1,16-10.2,26.1-10.2c5.2,0,10.2,1,15,3.1c5.5,2.5,9.8,6.5,9.8,12.8
		v8.6h-15.2v-5.6c0-1.5-1.7-2.4-2.9-3c-2.1-1-4.4-1.4-6.7-1.4c-5.4,0-10.1,1.7-13.8,5.6c-4,4.1-5.5,9.2-5.5,14.8
		c0,5.8,1.7,10.9,6,14.9c3.9,3.7,8.6,5.3,14,5.3c7.2,0,13.2-2.6,17.9-8l1.9-2.2l7.5,12.3l-1,1.2c-6.9,8.4-16.6,11.6-27.3,11.6
		c-9.9,0-18.7-3-25.7-10C569.8,115.6,566.7,107,566.7,97.4"/>
	<path class="st1" d="M697.9,116c-0.1,0-0.8,0.2-0.9,0.1c-0.1-0.1-0.4-0.2-0.4-0.4V89c0-18.2-9.8-26.8-27.6-26.8
		c-4.7,0-8.7,0.6-13.1,2.2c-5.5,2-9.3,5.5-9.3,11.8V87h16v-8.2c0-2.7,5.8-2.7,7.4-2.7c3,0,6.6,1.2,8.7,3.4c2,2.1,2.1,7.4,2.3,9.4
		h-0.6c-16,0-40.1,2-40.1,22.9c0,6.4,2.4,11.5,7.4,15.6c4.6,3.8,10.2,5.2,16.1,5.2c6.6,0,12.4-2.3,17.2-7c0.4-0.4,0.7-0.7,1.1-1.1
		c1,4.3,4.6,6.4,9.6,6.4h12.9v-15H697.9z M676.9,113.5c-2.7,3.5-6,5.3-10.5,5.3c-2.7,0-5.4-0.8-7.4-2.7c-1.5-1.5-2.3-2.6-2.3-4.8
		c0-9.7,17-9.3,23.4-9.3h1C681.1,105,679.7,109.9,676.9,113.5z"/>
	<path class="st1" d="M430.6,116c-0.1,0-0.6,0.2-0.8,0.1c-0.1-0.1-0.3-0.2-0.3-0.4V89c0-18.2-10-26.8-27.8-26.8
		c-4.7,0-8.6,0.6-13,2.2c-5.5,2-9.2,5.5-9.2,11.8V87h16v-8.2c0-2.7,5.6-2.7,7.2-2.7c3,0,6.5,1.2,8.7,3.4c2,2.1,2.1,7.4,2.2,9.4h-0.6
		c-16,0-40.1,2-40.1,22.9c0,6.4,2.4,11.5,7.4,15.6c4.6,3.8,10.2,5.2,16.1,5.2c6.6,0,12.4-2.3,17.2-7c0.4-0.4,0.7-0.7,1.1-1.1
		c1,4.3,4.6,6.4,9.6,6.4h13.2v-15H430.6z M409.6,113.5c-2.7,3.5-6,5.3-10.5,5.3c-2.7,0-5.4-0.8-7.4-2.7c-1.5-1.5-2.3-2.6-2.3-4.8
		c0-9.7,17-9.3,23.4-9.3h1C413.8,105,412.4,109.9,409.6,113.5z"/>
	<path class="st1" d="M737.2,72.2c3.9-5.7,9.6-9.2,17.8-9.2c1.2,0,2.4,0.1,3.6,0.3l1.8,0.3V80l-2.6-0.6c-1-0.2-2-0.3-3.1-0.3
		c-3.5,0-6.6,1.2-9.3,3.4c-3.2,2.6-5.2,6-6.4,9.9c-1,3.4-1.4,7.1-1.4,10.7v27.9h-16.4V79c0-0.1,0-0.4-0.1-0.5
		c-0.1-0.1-0.4-0.1-0.5-0.1h-7.2V63.8H727C732.8,63.8,736.8,66.5,737.2,72.2z"/>
	<path class="st1" d="M778.9,77.7h-8.2V63.8h8.4V46.5h16.1v17.3h15.1v13.9h-15.1v26.8c0,7.8,3.1,12,11.2,12c0.8,0,1.6,0,2.4-0.2
		l2.6-0.6v15.2l-1.8,0.3c-1.5,0.2-3.1,0.2-4.6,0.2c-5.7,0-11.3-1.1-16.1-4.2c-7.5-4.9-10-12.8-10-21.4V77.7z"/>
	<path class="st1" d="M322.5,109.8c4.5,5.6,10.2,8.6,17.4,8.6c4.3,0,8.8-0.8,8.8-5.9c0-2.2-2.6-3.9-4.2-4.8
		c-3.3-1.8-8.1-3.6-11.6-5.1c-8.7-3.7-18.4-9.9-18.4-20.5c0-6.3,2.5-11.5,7.8-15.1c5.2-3.6,11.5-4.7,17.7-4.7c4.8,0,9.6,0.7,14,2.7
		c5,2.2,8.7,5.9,8.7,11.7v8.1h-15.1v-5.2c0-1.1-1.2-1.7-2.1-2.1c-1.7-0.8-3.5-1.1-5.3-1.1c-3.8,0-9.6,0.4-9.6,5.3
		c0,2.3,2.5,4,4.3,4.9c3.3,1.8,8.1,3.5,11.6,4.9c8.9,3.6,18.5,9.8,18.5,20.5c0,6.2-2.5,11.3-7.4,15.1c-5.2,4-11.4,5.5-17.8,5.5
		c-10.7,0-20.3-3.2-26.9-12l-1-1.3l8.8-11.5L322.5,109.8z"/>
	<path class="st1" d="M466.9,71.6c1.4-1.7,3.1-3.2,5-4.5c4.4-3.1,9.2-4.9,14.6-4.9c9.4,0,16.2,3.6,19.6,11.5
		c1.9-2.7,4.3-4.9,7.1-6.8c4.5-3.1,9.5-4.7,14.9-4.7c16.5,0,22.9,10.8,22.9,26.2v27.3c0,0.1,0,0.4,0.1,0.5c0.1,0.1,0.4,0.1,0.5,0.1
		h7.2v14.6h-14.1c-6.5,0-10.1-3.6-10.1-10.1V91.1c0-3-0.2-7.5-1.7-10.1c-1.5-2.7-4.2-3.5-7.2-3.5c-3.8,0-7,1.6-9.7,4.2
		c-3,2.9-4.9,6.3-5.9,10.3c-0.7,2.6-0.9,5.3-0.9,8.1v30.9h-16.4V91.1c0-2.9-0.2-7.3-1.6-10c-1.5-2.8-4-3.7-7.1-3.7
		c-4,0-7.3,1.6-10.1,4.3c-3,3-4.8,6.7-5.9,10.7c-0.6,2.4-0.8,5-0.8,7.5v30.9H451V79c0-0.1,0-0.4-0.1-0.5c-0.1-0.1-0.4-0.1-0.5-0.1
		h-7.2V63.8h13.7C462.4,63.8,466.4,66.2,466.9,71.6z"/>
	<path class="st1" d="M102.6,146.8c5.9,0,10.7,4.8,10.7,10.7c0,5.9-4.8,10.7-10.7,10.7c-5.9,0-10.7-4.8-10.7-10.7
		C91.8,151.6,96.6,146.8,102.6,146.8"/>
	<circle class="st1" cx="248.3" cy="149.5" r="10.7"/>
	<path class="st1" d="M174.2,168.2c5.9,0,10.7,4.8,10.7,10.7s-4.8,10.7-10.7,10.7c-5.9,0-10.7-4.8-10.7-10.7
		S168.3,168.2,174.2,168.2"/>
	<g class="st2">
		<polygon class="st3" points="175.3,86.4 90.9,62.5 162.5,36.8 178.9,41.7 178.6,77.2 248,53.1 161.3,28.4 76.6,58.4 76.6,66.9 
			92.6,72.3 92.6,131.2 175,156 259.6,122.6 259.6,57.3 		"/>
		<polygon class="st3" points="171,77.5 171.3,47.2 162.6,44.6 115.2,61.7 		"/>
	</g>
</g>
<g id="Layer_1_copy" class="st0">
	<rect class="st4" width="887.9" height="218"/>
	<path class="st5" d="M566.7,97.4c0-9.6,3.1-18.1,9.9-24.9c7.1-7.1,16-10.2,26.1-10.2c5.2,0,10.2,1,15,3.1c5.5,2.5,9.8,6.5,9.8,12.8
		v8.6h-15.2v-5.6c0-1.5-1.7-2.4-2.9-3c-2.1-1-4.4-1.4-6.7-1.4c-5.4,0-10.1,1.7-13.8,5.6c-4,4.1-5.5,9.2-5.5,14.8
		c0,5.8,1.7,10.9,6,14.9c3.9,3.7,8.6,5.3,14,5.3c7.2,0,13.2-2.6,17.9-8l1.9-2.2l7.5,12.3l-1,1.2c-6.9,8.4-16.6,11.6-27.3,11.6
		c-9.9,0-18.7-3-25.7-10C569.8,115.6,566.7,107,566.7,97.4"/>
	<path class="st5" d="M697.9,116c-0.1,0-0.8,0.2-0.9,0.1c-0.1-0.1-0.4-0.2-0.4-0.4V89c0-18.2-9.8-26.8-27.6-26.8
		c-4.7,0-8.7,0.6-13.1,2.2c-5.5,2-9.3,5.5-9.3,11.8V87h16v-8.2c0-2.7,5.8-2.7,7.4-2.7c3,0,6.6,1.2,8.7,3.4c2,2.1,2.1,7.4,2.3,9.4
		h-0.6c-16,0-40.1,2-40.1,22.9c0,6.4,2.4,11.5,7.4,15.6c4.6,3.8,10.2,5.2,16.1,5.2c6.6,0,12.4-2.3,17.2-7c0.4-0.4,0.7-0.7,1.1-1.1
		c1,4.3,4.6,6.4,9.6,6.4h12.9v-15H697.9z M676.9,113.5c-2.7,3.5-6,5.3-10.5,5.3c-2.7,0-5.4-0.8-7.4-2.7c-1.5-1.5-2.3-2.6-2.3-4.8
		c0-9.7,17-9.3,23.4-9.3h1C681.1,105,679.7,109.9,676.9,113.5z"/>
	<path class="st5" d="M430.6,116c-0.1,0-0.6,0.2-0.8,0.1c-0.1-0.1-0.3-0.2-0.3-0.4V89c0-18.2-10-26.8-27.8-26.8
		c-4.7,0-8.6,0.6-13,2.2c-5.5,2-9.2,5.5-9.2,11.8V87h16v-8.2c0-2.7,5.6-2.7,7.2-2.7c3,0,6.5,1.2,8.7,3.4c2,2.1,2.1,7.4,2.2,9.4h-0.6
		c-16,0-40.1,2-40.1,22.9c0,6.4,2.4,11.5,7.4,15.6c4.6,3.8,10.2,5.2,16.1,5.2c6.6,0,12.4-2.3,17.2-7c0.4-0.4,0.7-0.7,1.1-1.1
		c1,4.3,4.6,6.4,9.6,6.4h13.2v-15H430.6z M409.6,113.5c-2.7,3.5-6,5.3-10.5,5.3c-2.7,0-5.4-0.8-7.4-2.7c-1.5-1.5-2.3-2.6-2.3-4.8
		c0-9.7,17-9.3,23.4-9.3h1C413.8,105,412.4,109.9,409.6,113.5z"/>
	<path class="st5" d="M737.2,72.2c3.9-5.7,9.6-9.2,17.8-9.2c1.2,0,2.4,0.1,3.6,0.3l1.8,0.3V80l-2.6-0.6c-1-0.2-2-0.3-3.1-0.3
		c-3.5,0-6.6,1.2-9.3,3.4c-3.2,2.6-5.2,6-6.4,9.9c-1,3.4-1.4,7.1-1.4,10.7v27.9h-16.4V79c0-0.1,0-0.4-0.1-0.5
		c-0.1-0.1-0.4-0.1-0.5-0.1h-7.2V63.8H727C732.8,63.8,736.8,66.5,737.2,72.2z"/>
	<path class="st5" d="M778.9,77.7h-8.2V63.8h8.4V46.5h16.1v17.3h15.1v13.9h-15.1v26.8c0,7.8,3.1,12,11.2,12c0.8,0,1.6,0,2.4-0.2
		l2.6-0.6v15.2l-1.8,0.3c-1.5,0.2-3.1,0.2-4.6,0.2c-5.7,0-11.3-1.1-16.1-4.2c-7.5-4.9-10-12.8-10-21.4V77.7z"/>
	<path class="st5" d="M322.5,109.8c4.5,5.6,10.2,8.6,17.4,8.6c4.3,0,8.8-0.8,8.8-5.9c0-2.2-2.6-3.9-4.2-4.8
		c-3.3-1.8-8.1-3.6-11.6-5.1c-8.7-3.7-18.4-9.9-18.4-20.5c0-6.3,2.5-11.5,7.8-15.1c5.2-3.6,11.5-4.7,17.7-4.7c4.8,0,9.6,0.7,14,2.7
		c5,2.2,8.7,5.9,8.7,11.7v8.1h-15.1v-5.2c0-1.1-1.2-1.7-2.1-2.1c-1.7-0.8-3.5-1.1-5.3-1.1c-3.8,0-9.6,0.4-9.6,5.3
		c0,2.3,2.5,4,4.3,4.9c3.3,1.8,8.1,3.5,11.6,4.9c8.9,3.6,18.5,9.8,18.5,20.5c0,6.2-2.5,11.3-7.4,15.1c-5.2,4-11.4,5.5-17.8,5.5
		c-10.7,0-20.3-3.2-26.9-12l-1-1.3l8.8-11.5L322.5,109.8z"/>
	<path class="st5" d="M466.9,71.6c1.4-1.7,3.1-3.2,5-4.5c4.4-3.1,9.2-4.9,14.6-4.9c9.4,0,16.2,3.6,19.6,11.5
		c1.9-2.7,4.3-4.9,7.1-6.8c4.5-3.1,9.5-4.7,14.9-4.7c16.5,0,22.9,10.8,22.9,26.2v27.3c0,0.1,0,0.4,0.1,0.5c0.1,0.1,0.4,0.1,0.5,0.1
		h7.2v14.6h-14.1c-6.5,0-10.1-3.6-10.1-10.1V91.1c0-3-0.2-7.5-1.7-10.1c-1.5-2.7-4.2-3.5-7.2-3.5c-3.8,0-7,1.6-9.7,4.2
		c-3,2.9-4.9,6.3-5.9,10.3c-0.7,2.6-0.9,5.3-0.9,8.1v30.9h-16.4V91.1c0-2.9-0.2-7.3-1.6-10c-1.5-2.8-4-3.7-7.1-3.7
		c-4,0-7.3,1.6-10.1,4.3c-3,3-4.8,6.7-5.9,10.7c-0.6,2.4-0.8,5-0.8,7.5v30.9H451V79c0-0.1,0-0.4-0.1-0.5c-0.1-0.1-0.4-0.1-0.5-0.1
		h-7.2V63.8h13.7C462.4,63.8,466.4,66.2,466.9,71.6z"/>
	<path class="st5" d="M102.6,146.8c5.9,0,10.7,4.8,10.7,10.7c0,5.9-4.8,10.7-10.7,10.7c-5.9,0-10.7-4.8-10.7-10.7
		C91.8,151.6,96.6,146.8,102.6,146.8"/>
	<circle class="st5" cx="248.3" cy="149.5" r="10.7"/>
	<path class="st5" d="M174.2,168.2c5.9,0,10.7,4.8,10.7,10.7s-4.8,10.7-10.7,10.7c-5.9,0-10.7-4.8-10.7-10.7
		S168.3,168.2,174.2,168.2"/>
	<g class="st2">
		<polygon class="st6" points="175.3,86.4 90.9,62.5 162.5,36.8 178.9,41.7 178.6,77.2 248,53.1 161.3,28.4 76.6,58.4 76.6,66.9 
			92.6,72.3 92.6,131.2 175,156 259.6,122.6 259.6,57.3 		"/>
		<polygon class="st6" points="171,77.5 171.3,47.2 162.6,44.6 115.2,61.7 		"/>
	</g>
</g>
<g id="Layer_1_copy_4">
	<path class="st6" d="M566.7,97.4c0-9.6,3.1-18.1,9.9-24.9c7.1-7.1,16-10.2,26.1-10.2c5.2,0,10.2,1,15,3.1c5.5,2.5,9.8,6.5,9.8,12.8
		v8.6h-15.2v-5.6c0-1.5-1.7-2.4-2.9-3c-2.1-1-4.4-1.4-6.7-1.4c-5.4,0-10.1,1.7-13.8,5.6c-4,4.1-5.5,9.2-5.5,14.8
		c0,5.8,1.7,10.9,6,14.9c3.9,3.7,8.6,5.3,14,5.3c7.2,0,13.2-2.6,17.9-8l1.9-2.2l7.5,12.3l-1,1.2c-6.9,8.4-16.6,11.6-27.3,11.6
		c-9.9,0-18.7-3-25.7-10C569.8,115.6,566.7,107,566.7,97.4"/>
	<path class="st6" d="M697.9,116c-0.1,0-0.8,0.2-0.9,0.1c-0.1-0.1-0.4-0.2-0.4-0.4V89c0-18.2-9.8-26.8-27.6-26.8
		c-4.7,0-8.7,0.6-13.1,2.2c-5.5,2-9.3,5.5-9.3,11.8V87h16v-8.2c0-2.7,5.8-2.7,7.4-2.7c3,0,6.6,1.2,8.7,3.4c2,2.1,2.1,7.4,2.3,9.4
		h-0.6c-16,0-40.1,2-40.1,22.9c0,6.4,2.4,11.5,7.4,15.6c4.6,3.8,10.2,5.2,16.1,5.2c6.6,0,12.4-2.3,17.2-7c0.4-0.4,0.7-0.7,1.1-1.1
		c1,4.3,4.6,6.4,9.6,6.4h12.9v-15H697.9z M676.9,113.5c-2.7,3.5-6,5.3-10.5,5.3c-2.7,0-5.4-0.8-7.4-2.7c-1.5-1.5-2.3-2.6-2.3-4.8
		c0-9.7,17-9.3,23.4-9.3h1C681.1,105,679.7,109.9,676.9,113.5z"/>
	<path class="st6" d="M430.6,116c-0.1,0-0.6,0.2-0.8,0.1c-0.1-0.1-0.3-0.2-0.3-0.4V89c0-18.2-10-26.8-27.8-26.8
		c-4.7,0-8.6,0.6-13,2.2c-5.5,2-9.2,5.5-9.2,11.8V87h16v-8.2c0-2.7,5.6-2.7,7.2-2.7c3,0,6.5,1.2,8.7,3.4c2,2.1,2.1,7.4,2.2,9.4h-0.6
		c-16,0-40.1,2-40.1,22.9c0,6.4,2.4,11.5,7.4,15.6c4.6,3.8,10.2,5.2,16.1,5.2c6.6,0,12.4-2.3,17.2-7c0.4-0.4,0.7-0.7,1.1-1.1
		c1,4.3,4.6,6.4,9.6,6.4h13.2v-15H430.6z M409.6,113.5c-2.7,3.5-6,5.3-10.5,5.3c-2.7,0-5.4-0.8-7.4-2.7c-1.5-1.5-2.3-2.6-2.3-4.8
		c0-9.7,17-9.3,23.4-9.3h1C413.8,105,412.4,109.9,409.6,113.5z"/>
	<path class="st6" d="M737.2,72.2c3.9-5.7,9.6-9.2,17.8-9.2c1.2,0,2.4,0.1,3.6,0.3l1.8,0.3V80l-2.6-0.6c-1-0.2-2-0.3-3.1-0.3
		c-3.5,0-6.6,1.2-9.3,3.4c-3.2,2.6-5.2,6-6.4,9.9c-1,3.4-1.4,7.1-1.4,10.7v27.9h-16.4V79c0-0.1,0-0.4-0.1-0.5
		c-0.1-0.1-0.4-0.1-0.5-0.1h-7.2V63.8H727C732.8,63.8,736.8,66.5,737.2,72.2z"/>
	<path class="st6" d="M778.9,77.7h-8.2V63.8h8.4V46.5h16.1v17.3h15.1v13.9h-15.1v26.8c0,7.8,3.1,12,11.2,12c0.8,0,1.6,0,2.4-0.2
		l2.6-0.6v15.2l-1.8,0.3c-1.5,0.2-3.1,0.2-4.6,0.2c-5.7,0-11.3-1.1-16.1-4.2c-7.5-4.9-10-12.8-10-21.4V77.7z"/>
	<path class="st6" d="M322.5,109.8c4.5,5.6,10.2,8.6,17.4,8.6c4.3,0,8.8-0.8,8.8-5.9c0-2.2-2.6-3.9-4.2-4.8
		c-3.3-1.8-8.1-3.6-11.6-5.1c-8.7-3.7-18.4-9.9-18.4-20.5c0-6.3,2.5-11.5,7.8-15.1c5.2-3.6,11.5-4.7,17.7-4.7c4.8,0,9.6,0.7,14,2.7
		c5,2.2,8.7,5.9,8.7,11.7v8.1h-15.1v-5.2c0-1.1-1.2-1.7-2.1-2.1c-1.7-0.8-3.5-1.1-5.3-1.1c-3.8,0-9.6,0.4-9.6,5.3
		c0,2.3,2.5,4,4.3,4.9c3.3,1.8,8.1,3.5,11.6,4.9c8.9,3.6,18.5,9.8,18.5,20.5c0,6.2-2.5,11.3-7.4,15.1c-5.2,4-11.4,5.5-17.8,5.5
		c-10.7,0-20.3-3.2-26.9-12l-1-1.3l8.8-11.5L322.5,109.8z"/>
	<path class="st6" d="M466.9,71.6c1.4-1.7,3.1-3.2,5-4.5c4.4-3.1,9.2-4.9,14.6-4.9c9.4,0,16.2,3.6,19.6,11.5
		c1.9-2.7,4.3-4.9,7.1-6.8c4.5-3.1,9.5-4.7,14.9-4.7c16.5,0,22.9,10.8,22.9,26.2v27.3c0,0.1,0,0.4,0.1,0.5c0.1,0.1,0.4,0.1,0.5,0.1
		h7.2v14.6h-14.1c-6.5,0-10.1-3.6-10.1-10.1V91.1c0-3-0.2-7.5-1.7-10.1c-1.5-2.7-4.2-3.5-7.2-3.5c-3.8,0-7,1.6-9.7,4.2
		c-3,2.9-4.9,6.3-5.9,10.3c-0.7,2.6-0.9,5.3-0.9,8.1v30.9h-16.4V91.1c0-2.9-0.2-7.3-1.6-10c-1.5-2.8-4-3.7-7.1-3.7
		c-4,0-7.3,1.6-10.1,4.3c-3,3-4.8,6.7-5.9,10.7c-0.6,2.4-0.8,5-0.8,7.5v30.9H451V79c0-0.1,0-0.4-0.1-0.5c-0.1-0.1-0.4-0.1-0.5-0.1
		h-7.2V63.8h13.7C462.4,63.8,466.4,66.2,466.9,71.6z"/>
	<path class="st6" d="M102.6,146.8c5.9,0,10.7,4.8,10.7,10.7c0,5.9-4.8,10.7-10.7,10.7c-5.9,0-10.7-4.8-10.7-10.7
		C91.8,151.6,96.6,146.8,102.6,146.8"/>
	<circle class="st6" cx="248.3" cy="149.5" r="10.7"/>
	<path class="st6" d="M174.2,168.2c5.9,0,10.7,4.8,10.7,10.7s-4.8,10.7-10.7,10.7c-5.9,0-10.7-4.8-10.7-10.7
		S168.3,168.2,174.2,168.2"/>
	<g>
		<polygon class="st6" points="175.3,86.4 90.9,62.5 162.5,36.8 178.9,41.7 178.6,77.2 248,53.1 161.3,28.4 76.6,58.4 76.6,66.9 
			92.6,72.3 92.6,131.2 175,156 259.6,122.6 259.6,57.3 		"/>
		<polygon class="st6" points="171,77.5 171.3,47.2 162.6,44.6 115.2,61.7 		"/>
	</g>
</g>
<g id="Layer_1_copy_2" class="st0">
	<path class="st7" d="M566.7,97.4c0-9.6,3.1-18.1,9.9-24.9c7.1-7.1,16-10.2,26.1-10.2c5.2,0,10.2,1,15,3.1c5.5,2.5,9.8,6.5,9.8,12.8
		v8.6h-15.2v-5.6c0-1.5-1.7-2.4-2.9-3c-2.1-1-4.4-1.4-6.7-1.4c-5.4,0-10.1,1.7-13.8,5.6c-4,4.1-5.5,9.2-5.5,14.8
		c0,5.8,1.7,10.9,6,14.9c3.9,3.7,8.6,5.3,14,5.3c7.2,0,13.2-2.6,17.9-8l1.9-2.2l7.5,12.3l-1,1.2c-6.9,8.4-16.6,11.6-27.3,11.6
		c-9.9,0-18.7-3-25.7-10C569.8,115.6,566.7,107,566.7,97.4"/>
	<path class="st7" d="M697.9,116c-0.1,0-0.8,0.2-0.9,0.1c-0.1-0.1-0.4-0.2-0.4-0.4V89c0-18.2-9.8-26.8-27.6-26.8
		c-4.7,0-8.7,0.6-13.1,2.2c-5.5,2-9.3,5.5-9.3,11.8V87h16v-8.2c0-2.7,5.8-2.7,7.4-2.7c3,0,6.6,1.2,8.7,3.4c2,2.1,2.1,7.4,2.3,9.4
		h-0.6c-16,0-40.1,2-40.1,22.9c0,6.4,2.4,11.5,7.4,15.6c4.6,3.8,10.2,5.2,16.1,5.2c6.6,0,12.4-2.3,17.2-7c0.4-0.4,0.7-0.7,1.1-1.1
		c1,4.3,4.6,6.4,9.6,6.4h12.9v-15H697.9z M676.9,113.5c-2.7,3.5-6,5.3-10.5,5.3c-2.7,0-5.4-0.8-7.4-2.7c-1.5-1.5-2.3-2.6-2.3-4.8
		c0-9.7,17-9.3,23.4-9.3h1C681.1,105,679.7,109.9,676.9,113.5z"/>
	<path class="st7" d="M430.6,116c-0.1,0-0.6,0.2-0.8,0.1c-0.1-0.1-0.3-0.2-0.3-0.4V89c0-18.2-10-26.8-27.8-26.8
		c-4.7,0-8.6,0.6-13,2.2c-5.5,2-9.2,5.5-9.2,11.8V87h16v-8.2c0-2.7,5.6-2.7,7.2-2.7c3,0,6.5,1.2,8.7,3.4c2,2.1,2.1,7.4,2.2,9.4h-0.6
		c-16,0-40.1,2-40.1,22.9c0,6.4,2.4,11.5,7.4,15.6c4.6,3.8,10.2,5.2,16.1,5.2c6.6,0,12.4-2.3,17.2-7c0.4-0.4,0.7-0.7,1.1-1.1
		c1,4.3,4.6,6.4,9.6,6.4h13.2v-15H430.6z M409.6,113.5c-2.7,3.5-6,5.3-10.5,5.3c-2.7,0-5.4-0.8-7.4-2.7c-1.5-1.5-2.3-2.6-2.3-4.8
		c0-9.7,17-9.3,23.4-9.3h1C413.8,105,412.4,109.9,409.6,113.5z"/>
	<path class="st7" d="M737.2,72.2c3.9-5.7,9.6-9.2,17.8-9.2c1.2,0,2.4,0.1,3.6,0.3l1.8,0.3V80l-2.6-0.6c-1-0.2-2-0.3-3.1-0.3
		c-3.5,0-6.6,1.2-9.3,3.4c-3.2,2.6-5.2,6-6.4,9.9c-1,3.4-1.4,7.1-1.4,10.7v27.9h-16.4V79c0-0.1,0-0.4-0.1-0.5
		c-0.1-0.1-0.4-0.1-0.5-0.1h-7.2V63.8H727C732.8,63.8,736.8,66.5,737.2,72.2z"/>
	<path class="st7" d="M778.9,77.7h-8.2V63.8h8.4V46.5h16.1v17.3h15.1v13.9h-15.1v26.8c0,7.8,3.1,12,11.2,12c0.8,0,1.6,0,2.4-0.2
		l2.6-0.6v15.2l-1.8,0.3c-1.5,0.2-3.1,0.2-4.6,0.2c-5.7,0-11.3-1.1-16.1-4.2c-7.5-4.9-10-12.8-10-21.4V77.7z"/>
	<path class="st7" d="M322.5,109.8c4.5,5.6,10.2,8.6,17.4,8.6c4.3,0,8.8-0.8,8.8-5.9c0-2.2-2.6-3.9-4.2-4.8
		c-3.3-1.8-8.1-3.6-11.6-5.1c-8.7-3.7-18.4-9.9-18.4-20.5c0-6.3,2.5-11.5,7.8-15.1c5.2-3.6,11.5-4.7,17.7-4.7c4.8,0,9.6,0.7,14,2.7
		c5,2.2,8.7,5.9,8.7,11.7v8.1h-15.1v-5.2c0-1.1-1.2-1.7-2.1-2.1c-1.7-0.8-3.5-1.1-5.3-1.1c-3.8,0-9.6,0.4-9.6,5.3
		c0,2.3,2.5,4,4.3,4.9c3.3,1.8,8.1,3.5,11.6,4.9c8.9,3.6,18.5,9.8,18.5,20.5c0,6.2-2.5,11.3-7.4,15.1c-5.2,4-11.4,5.5-17.8,5.5
		c-10.7,0-20.3-3.2-26.9-12l-1-1.3l8.8-11.5L322.5,109.8z"/>
	<path class="st7" d="M466.9,71.6c1.4-1.7,3.1-3.2,5-4.5c4.4-3.1,9.2-4.9,14.6-4.9c9.4,0,16.2,3.6,19.6,11.5
		c1.9-2.7,4.3-4.9,7.1-6.8c4.5-3.1,9.5-4.7,14.9-4.7c16.5,0,22.9,10.8,22.9,26.2v27.3c0,0.1,0,0.4,0.1,0.5c0.1,0.1,0.4,0.1,0.5,0.1
		h7.2v14.6h-14.1c-6.5,0-10.1-3.6-10.1-10.1V91.1c0-3-0.2-7.5-1.7-10.1c-1.5-2.7-4.2-3.5-7.2-3.5c-3.8,0-7,1.6-9.7,4.2
		c-3,2.9-4.9,6.3-5.9,10.3c-0.7,2.6-0.9,5.3-0.9,8.1v30.9h-16.4V91.1c0-2.9-0.2-7.3-1.6-10c-1.5-2.8-4-3.7-7.1-3.7
		c-4,0-7.3,1.6-10.1,4.3c-3,3-4.8,6.7-5.9,10.7c-0.6,2.4-0.8,5-0.8,7.5v30.9H451V79c0-0.1,0-0.4-0.1-0.5c-0.1-0.1-0.4-0.1-0.5-0.1
		h-7.2V63.8h13.7C462.4,63.8,466.4,66.2,466.9,71.6z"/>
	<path class="st7" d="M102.6,146.8c5.9,0,10.7,4.8,10.7,10.7c0,5.9-4.8,10.7-10.7,10.7c-5.9,0-10.7-4.8-10.7-10.7
		C91.8,151.6,96.6,146.8,102.6,146.8"/>
	<circle class="st7" cx="248.3" cy="149.5" r="10.7"/>
	<path class="st7" d="M174.2,168.2c5.9,0,10.7,4.8,10.7,10.7s-4.8,10.7-10.7,10.7c-5.9,0-10.7-4.8-10.7-10.7
		S168.3,168.2,174.2,168.2"/>
	<g class="st2">
		<polygon class="st8" points="175.3,86.4 90.9,62.5 162.5,36.8 178.9,41.7 178.6,77.2 248,53.1 161.3,28.4 76.6,58.4 76.6,66.9 
			92.6,72.3 92.6,131.2 175,156 259.6,122.6 259.6,57.3 		"/>
		<polygon class="st8" points="171,77.5 171.3,47.2 162.6,44.6 115.2,61.7 		"/>
	</g>
</g>
<g id="Layer_1_copy_3" class="st0">
	<path class="st4" d="M566.7,97.4c0-9.6,3.1-18.1,9.9-24.9c7.1-7.1,16-10.2,26.1-10.2c5.2,0,10.2,1,15,3.1c5.5,2.5,9.8,6.5,9.8,12.8
		v8.6h-15.2v-5.6c0-1.5-1.7-2.4-2.9-3c-2.1-1-4.4-1.4-6.7-1.4c-5.4,0-10.1,1.7-13.8,5.6c-4,4.1-5.5,9.2-5.5,14.8
		c0,5.8,1.7,10.9,6,14.9c3.9,3.7,8.6,5.3,14,5.3c7.2,0,13.2-2.6,17.9-8l1.9-2.2l7.5,12.3l-1,1.2c-6.9,8.4-16.6,11.6-27.3,11.6
		c-9.9,0-18.7-3-25.7-10C569.8,115.6,566.7,107,566.7,97.4"/>
	<path class="st4" d="M697.9,116c-0.1,0-0.8,0.2-0.9,0.1c-0.1-0.1-0.4-0.2-0.4-0.4V89c0-18.2-9.8-26.8-27.6-26.8
		c-4.7,0-8.7,0.6-13.1,2.2c-5.5,2-9.3,5.5-9.3,11.8V87h16v-8.2c0-2.7,5.8-2.7,7.4-2.7c3,0,6.6,1.2,8.7,3.4c2,2.1,2.1,7.4,2.3,9.4
		h-0.6c-16,0-40.1,2-40.1,22.9c0,6.4,2.4,11.5,7.4,15.6c4.6,3.8,10.2,5.2,16.1,5.2c6.6,0,12.4-2.3,17.2-7c0.4-0.4,0.7-0.7,1.1-1.1
		c1,4.3,4.6,6.4,9.6,6.4h12.9v-15H697.9z M676.9,113.5c-2.7,3.5-6,5.3-10.5,5.3c-2.7,0-5.4-0.8-7.4-2.7c-1.5-1.5-2.3-2.6-2.3-4.8
		c0-9.7,17-9.3,23.4-9.3h1C681.1,105,679.7,109.9,676.9,113.5z"/>
	<path class="st4" d="M430.6,116c-0.1,0-0.6,0.2-0.8,0.1c-0.1-0.1-0.3-0.2-0.3-0.4V89c0-18.2-10-26.8-27.8-26.8
		c-4.7,0-8.6,0.6-13,2.2c-5.5,2-9.2,5.5-9.2,11.8V87h16v-8.2c0-2.7,5.6-2.7,7.2-2.7c3,0,6.5,1.2,8.7,3.4c2,2.1,2.1,7.4,2.2,9.4h-0.6
		c-16,0-40.1,2-40.1,22.9c0,6.4,2.4,11.5,7.4,15.6c4.6,3.8,10.2,5.2,16.1,5.2c6.6,0,12.4-2.3,17.2-7c0.4-0.4,0.7-0.7,1.1-1.1
		c1,4.3,4.6,6.4,9.6,6.4h13.2v-15H430.6z M409.6,113.5c-2.7,3.5-6,5.3-10.5,5.3c-2.7,0-5.4-0.8-7.4-2.7c-1.5-1.5-2.3-2.6-2.3-4.8
		c0-9.7,17-9.3,23.4-9.3h1C413.8,105,412.4,109.9,409.6,113.5z"/>
	<path class="st4" d="M737.2,72.2c3.9-5.7,9.6-9.2,17.8-9.2c1.2,0,2.4,0.1,3.6,0.3l1.8,0.3V80l-2.6-0.6c-1-0.2-2-0.3-3.1-0.3
		c-3.5,0-6.6,1.2-9.3,3.4c-3.2,2.6-5.2,6-6.4,9.9c-1,3.4-1.4,7.1-1.4,10.7v27.9h-16.4V79c0-0.1,0-0.4-0.1-0.5
		c-0.1-0.1-0.4-0.1-0.5-0.1h-7.2V63.8H727C732.8,63.8,736.8,66.5,737.2,72.2z"/>
	<path class="st4" d="M778.9,77.7h-8.2V63.8h8.4V46.5h16.1v17.3h15.1v13.9h-15.1v26.8c0,7.8,3.1,12,11.2,12c0.8,0,1.6,0,2.4-0.2
		l2.6-0.6v15.2l-1.8,0.3c-1.5,0.2-3.1,0.2-4.6,0.2c-5.7,0-11.3-1.1-16.1-4.2c-7.5-4.9-10-12.8-10-21.4V77.7z"/>
	<path class="st4" d="M322.5,109.8c4.5,5.6,10.2,8.6,17.4,8.6c4.3,0,8.8-0.8,8.8-5.9c0-2.2-2.6-3.9-4.2-4.8
		c-3.3-1.8-8.1-3.6-11.6-5.1c-8.7-3.7-18.4-9.9-18.4-20.5c0-6.3,2.5-11.5,7.8-15.1c5.2-3.6,11.5-4.7,17.7-4.7c4.8,0,9.6,0.7,14,2.7
		c5,2.2,8.7,5.9,8.7,11.7v8.1h-15.1v-5.2c0-1.1-1.2-1.7-2.1-2.1c-1.7-0.8-3.5-1.1-5.3-1.1c-3.8,0-9.6,0.4-9.6,5.3
		c0,2.3,2.5,4,4.3,4.9c3.3,1.8,8.1,3.5,11.6,4.9c8.9,3.6,18.5,9.8,18.5,20.5c0,6.2-2.5,11.3-7.4,15.1c-5.2,4-11.4,5.5-17.8,5.5
		c-10.7,0-20.3-3.2-26.9-12l-1-1.3l8.8-11.5L322.5,109.8z"/>
	<path class="st4" d="M466.9,71.6c1.4-1.7,3.1-3.2,5-4.5c4.4-3.1,9.2-4.9,14.6-4.9c9.4,0,16.2,3.6,19.6,11.5
		c1.9-2.7,4.3-4.9,7.1-6.8c4.5-3.1,9.5-4.7,14.9-4.7c16.5,0,22.9,10.8,22.9,26.2v27.3c0,0.1,0,0.4,0.1,0.5c0.1,0.1,0.4,0.1,0.5,0.1
		h7.2v14.6h-14.1c-6.5,0-10.1-3.6-10.1-10.1V91.1c0-3-0.2-7.5-1.7-10.1c-1.5-2.7-4.2-3.5-7.2-3.5c-3.8,0-7,1.6-9.7,4.2
		c-3,2.9-4.9,6.3-5.9,10.3c-0.7,2.6-0.9,5.3-0.9,8.1v30.9h-16.4V91.1c0-2.9-0.2-7.3-1.6-10c-1.5-2.8-4-3.7-7.1-3.7
		c-4,0-7.3,1.6-10.1,4.3c-3,3-4.8,6.7-5.9,10.7c-0.6,2.4-0.8,5-0.8,7.5v30.9H451V79c0-0.1,0-0.4-0.1-0.5c-0.1-0.1-0.4-0.1-0.5-0.1
		h-7.2V63.8h13.7C462.4,63.8,466.4,66.2,466.9,71.6z"/>
	<path class="st4" d="M102.6,146.8c5.9,0,10.7,4.8,10.7,10.7c0,5.9-4.8,10.7-10.7,10.7c-5.9,0-10.7-4.8-10.7-10.7
		C91.8,151.6,96.6,146.8,102.6,146.8"/>
	<circle class="st4" cx="248.3" cy="149.5" r="10.7"/>
	<path class="st4" d="M174.2,168.2c5.9,0,10.7,4.8,10.7,10.7s-4.8,10.7-10.7,10.7c-5.9,0-10.7-4.8-10.7-10.7
		S168.3,168.2,174.2,168.2"/>
	<g class="st2">
		<polygon class="st9" points="175.3,86.4 90.9,62.5 162.5,36.8 178.9,41.7 178.6,77.2 248,53.1 161.3,28.4 76.6,58.4 76.6,66.9 
			92.6,72.3 92.6,131.2 175,156 259.6,122.6 259.6,57.3 		"/>
		<polygon class="st9" points="171,77.5 171.3,47.2 162.6,44.6 115.2,61.7 		"/>
	</g>
</g>
</svg>
