<?xml version="1.0" encoding="UTF-8" standalone="no"?>
<svg width="40px" height="36px" viewBox="0 0 40 36" version="1.1" xmlns="http://www.w3.org/2000/svg" xmlns:xlink="http://www.w3.org/1999/xlink" xmlns:sketch="http://www.bohemiancoding.com/sketch/ns">
    <!-- Generator: Sketch 3.5.2 (25235) - http://www.bohemiancoding.com/sketch -->
    <title>Logo</title>
    <desc>Created with Sketch.</desc>
    <defs></defs>
    <g id="Page-1" stroke="none" stroke-width="1" fill="none" fill-rule="evenodd" sketch:type="MSPage">
        <g id="Desktop-HD" sketch:type="MSArtboardGroup" transform="translate(-420.000000, -599.000000)" fill="#1D96F3">
            <g id="Group-11" sketch:type="MSLayerGroup" transform="translate(420.000000, 484.000000)">
                <g id="Group-5" transform="translate(0.000000, 110.000000)" sketch:type="MSShapeGroup">
                    <g id="Group-10" transform="translate(0.000000, 5.000000)">
                        <g id="Logo">
                            <path d="M5.38252273,25.7561949 C6.66598864,25.7561949 7.70723864,26.7979724 7.70723864,28.0830701 C7.70723864,29.3677697 6.66598864,30.4095471 5.38252273,30.4095471 C4.09905682,30.4095471 3.059,29.3677697 3.059,28.0830701 C3.059,26.7979724 4.09905682,25.7561949 5.38252273,25.7561949" id="Fill-16"></path>
                            <path d="M36.9121534,24.016793 C38.1956193,24.016793 39.2360739,25.0585704 39.2360739,26.3436682 C39.2360739,27.6283677 38.1956193,28.6701452 36.9121534,28.6701452 C35.6286875,28.6701452 34.5894261,27.6283677 34.5894261,26.3436682 C34.5894261,25.0585704 35.6286875,24.016793 36.9121534,24.016793" id="Fill-18"></path>
                            <path d="M20.894483,30.4095869 C22.1723807,30.4095869 23.2084602,31.447382 23.2084602,32.7269046 C23.2084602,34.0064271 22.1723807,35.0446204 20.894483,35.0446204 C19.6157898,35.0446204 18.5797102,34.0064271 18.5797102,32.7269046 C18.5797102,31.447382 19.6157898,30.4095869 20.894483,30.4095869" id="Fill-20"></path>
                            <path d="M21.1405568,12.6744013 L2.85504545,7.50971797 L18.3453295,1.92489886 L21.8946477,2.98698618 L21.828625,10.6868206 L36.8428295,5.46837579 L18.2077159,0.106965375 L0.000159090909,6.60572914 L0.000159090909,8.46109652 L3.18197727,9.62075092 L3.18197727,22.3761528 L21.0502727,27.749112 L39.3751591,20.5207854 L39.3751591,6.36957699 L21.1405568,12.6744013 Z" id="Fill-23"></path>
                            <path d="M20.2012443,10.7472723 L20.2525511,4.19474712 L18.370108,3.63323864 L8.11471023,7.32485823 L20.2012443,10.7472723 Z" id="Fill-26"></path>
                        </g>
                    </g>
                </g>
            </g>
        </g>
    </g>
</svg>