<?xml version="1.0" encoding="utf-8"?>
<!-- Generator: Adobe Illustrator 19.2.1, SVG Export Plug-In . SVG Version: 6.00 Build 0)  -->
<svg version="1.1" xmlns="http://www.w3.org/2000/svg" xmlns:xlink="http://www.w3.org/1999/xlink" x="0px" y="0px"
	 viewBox="0 0 2048 2048" style="enable-background:new 0 0 2048 2048;" xml:space="preserve">
<style type="text/css">
	.st0{display:none;}
	.st1{display:inline;}
	.st2{fill-rule:evenodd;clip-rule:evenodd;fill:#C9D3DC;}
	.st3{display:inline;fill-rule:evenodd;clip-rule:evenodd;fill:#1D96F3;}
	.st4{fill-rule:evenodd;clip-rule:evenodd;fill:#FFFFFF;}
	.st5{fill-rule:evenodd;clip-rule:evenodd;fill:#565E66;}
	.st6{fill-rule:evenodd;clip-rule:evenodd;fill:#1D96F3;}
</style>
<g id="Layer_1" class="st0">
	<g class="st1">
		<path class="st2" d="M631.5,1249.1c35.3,0,63.9,28.6,63.9,63.9c0,35.3-28.6,63.9-63.9,63.9c-35.3,0-63.9-28.6-63.9-63.9
			C567.6,1277.7,596.2,1249.1,631.5,1249.1"/>
		<path class="st2" d="M1498.1,1201.3c35.3,0,63.9,28.6,63.9,63.9c0,35.3-28.6,63.9-63.9,63.9c-35.3,0-63.8-28.6-63.8-63.9
			C1434.2,1229.9,1462.8,1201.3,1498.1,1201.3z"/>
		<path class="st2" d="M1057.8,1376.8c35.1,0,63.6,28.5,63.6,63.6c0,35.1-28.5,63.6-63.6,63.6c-35.1,0-63.6-28.5-63.6-63.6
			C994.2,1405.3,1022.7,1376.8,1057.8,1376.8"/>
		<g>
			<polygon class="st2" points="1061.7,890 560.6,748.2 987.1,594.9 1085,624 1083.3,835.4 1496.1,692.2 985.2,545 486,723.4 
				486,774.3 568,806.1 568,1156.3 1057.7,1303.8 1560,1105.4 1560,716.9 			"/>
			<polygon class="st2" points="1038.8,837.1 1040.2,657.2 988.5,641.8 706.6,743.1 			"/>
		</g>
	</g>
</g>
<g id="Layer_1_copy" class="st0">
	<rect class="st3" width="2048" height="2048"/>
	<g class="st1">
		<path class="st4" d="M631.5,1249.1c35.3,0,63.9,28.6,63.9,63.9c0,35.3-28.6,63.9-63.9,63.9c-35.3,0-63.9-28.6-63.9-63.9
			C567.6,1277.7,596.2,1249.1,631.5,1249.1"/>
		<path class="st4" d="M1498.1,1201.3c35.3,0,63.9,28.6,63.9,63.9c0,35.3-28.6,63.9-63.9,63.9c-35.3,0-63.8-28.6-63.8-63.9
			C1434.2,1229.9,1462.8,1201.3,1498.1,1201.3z"/>
		<path class="st4" d="M1057.8,1376.8c35.1,0,63.6,28.5,63.6,63.6c0,35.1-28.5,63.6-63.6,63.6c-35.1,0-63.6-28.5-63.6-63.6
			C994.2,1405.3,1022.7,1376.8,1057.8,1376.8"/>
		<g>
			<polygon class="st4" points="1061.7,890 560.6,748.2 987.1,594.9 1085,624 1083.3,835.4 1496.1,692.2 985.2,545 486,723.4 
				486,774.3 568,806.1 568,1156.3 1057.7,1303.8 1560,1105.4 1560,716.9 			"/>
			<polygon class="st4" points="1038.8,837.1 1040.2,657.2 988.5,641.8 706.6,743.1 			"/>
		</g>
	</g>
</g>
<g id="Layer_1_copy_4">
	<g>
		<path class="st4" d="M631.5,1249.1c35.3,0,63.9,28.6,63.9,63.9c0,35.3-28.6,63.9-63.9,63.9c-35.3,0-63.9-28.6-63.9-63.9
			C567.6,1277.7,596.2,1249.1,631.5,1249.1"/>
		<path class="st4" d="M1498.1,1201.3c35.3,0,63.9,28.6,63.9,63.9c0,35.3-28.6,63.9-63.9,63.9c-35.3,0-63.8-28.6-63.8-63.9
			C1434.2,1229.9,1462.8,1201.3,1498.1,1201.3z"/>
		<path class="st4" d="M1057.8,1376.8c35.1,0,63.6,28.5,63.6,63.6c0,35.1-28.5,63.6-63.6,63.6c-35.1,0-63.6-28.5-63.6-63.6
			C994.2,1405.3,1022.7,1376.8,1057.8,1376.8"/>
		<g>
			<polygon class="st4" points="1061.7,890 560.6,748.2 987.1,594.9 1085,624 1083.3,835.4 1496.1,692.2 985.2,545 486,723.4 
				486,774.3 568,806.1 568,1156.3 1057.7,1303.8 1560,1105.4 1560,716.9 			"/>
			<polygon class="st4" points="1038.8,837.1 1040.2,657.2 988.5,641.8 706.6,743.1 			"/>
		</g>
	</g>
</g>
<g id="Layer_1_copy_3" class="st0">
	<g class="st1">
		<path class="st5" d="M631.5,1249.1c35.3,0,63.9,28.6,63.9,63.9c0,35.3-28.6,63.9-63.9,63.9c-35.3,0-63.9-28.6-63.9-63.9
			C567.6,1277.7,596.2,1249.1,631.5,1249.1"/>
		<path class="st5" d="M1498.1,1201.3c35.3,0,63.9,28.6,63.9,63.9c0,35.3-28.6,63.9-63.9,63.9c-35.3,0-63.8-28.6-63.8-63.9
			C1434.2,1229.9,1462.8,1201.3,1498.1,1201.3z"/>
		<path class="st5" d="M1057.8,1376.8c35.1,0,63.6,28.5,63.6,63.6c0,35.1-28.5,63.6-63.6,63.6c-35.1,0-63.6-28.5-63.6-63.6
			C994.2,1405.3,1022.7,1376.8,1057.8,1376.8"/>
		<g>
			<polygon class="st5" points="1061.7,890 560.6,748.2 987.1,594.9 1085,624 1083.3,835.4 1496.1,692.2 985.2,545 486,723.4 
				486,774.3 568,806.1 568,1156.3 1057.7,1303.8 1560,1105.4 1560,716.9 			"/>
			<polygon class="st5" points="1038.8,837.1 1040.2,657.2 988.5,641.8 706.6,743.1 			"/>
		</g>
	</g>
</g>
<g id="Layer_1_copy_2" class="st0">
	<g class="st1">
		<path class="st6" d="M631.5,1249.1c35.3,0,63.9,28.6,63.9,63.9c0,35.3-28.6,63.9-63.9,63.9c-35.3,0-63.9-28.6-63.9-63.9
			C567.6,1277.7,596.2,1249.1,631.5,1249.1"/>
		<path class="st6" d="M1498.1,1201.3c35.3,0,63.9,28.6,63.9,63.9c0,35.3-28.6,63.9-63.9,63.9c-35.3,0-63.8-28.6-63.8-63.9
			C1434.2,1229.9,1462.8,1201.3,1498.1,1201.3z"/>
		<path class="st6" d="M1057.8,1376.8c35.1,0,63.6,28.5,63.6,63.6c0,35.1-28.5,63.6-63.6,63.6c-35.1,0-63.6-28.5-63.6-63.6
			C994.2,1405.3,1022.7,1376.8,1057.8,1376.8"/>
		<g>
			<polygon class="st6" points="1061.7,890 560.6,748.2 987.1,594.9 1085,624 1083.3,835.4 1496.1,692.2 985.2,545 486,723.4 
				486,774.3 568,806.1 568,1156.3 1057.7,1303.8 1560,1105.4 1560,716.9 			"/>
			<polygon class="st6" points="1038.8,837.1 1040.2,657.2 988.5,641.8 706.6,743.1 			"/>
		</g>
	</g>
</g>
</svg>
