<?xml version="1.0" encoding="utf-8"?>
<!-- Generator: Adobe Illustrator 19.2.1, SVG Export Plug-In . SVG Version: 6.00 Build 0)  -->
<svg version="1.1" id="Layer_1" xmlns="http://www.w3.org/2000/svg" xmlns:xlink="http://www.w3.org/1999/xlink" x="0px" y="0px"
	 viewBox="0 0 1200 809.5" style="enable-background:new 0 0 1200 809.5;" xml:space="preserve">
<style type="text/css">
	.st0{fill:#323B43;}
</style>
<g>
	<path class="st0" d="M425.9,600.4c0-13.2-1.9-25.1-5.7-35.6c-3.8-10.6-11.2-20.4-22.1-29.4c-10.9-9-26-17.9-45.3-26.5
		c-19.2-8.7-44.1-17.9-74.7-27.6c-34.7-11.1-67.4-23.6-98.1-37.5c-30.7-13.9-57.6-30.3-80.6-49.2c-23.1-18.9-41.3-40.7-54.6-65.3
		c-13.4-24.6-20-53.4-20-86.4c0-31.6,6.8-60.4,20.5-86.6c13.7-26.2,32.9-48.5,57.7-66.9c24.8-18.4,54.3-32.7,88.4-42.9
		c34.2-10.2,71.7-15.3,112.6-15.3c42,0,80.1,5.8,114.5,17.4c34.3,11.6,63.6,27.8,87.9,48.6c24.3,20.8,43,45.5,56.2,74.1
		c13.2,28.6,19.8,59.9,19.8,93.9H426.4c0-15.9-2.5-30.7-7.5-44.2c-5-13.5-12.7-25.1-23.2-34.9c-10.4-9.7-23.4-17.2-39-22.6
		c-15.6-5.4-34-8.1-55.1-8.1c-20.5,0-38.2,2.3-53.3,6.8c-15.1,4.5-27.6,10.8-37.5,18.7c-9.9,8-17.3,17.3-22.4,28.1
		c-5,10.8-7.5,22.2-7.5,34.3c0,25,12.7,45.9,38.2,62.7c25.5,16.8,62.9,32.5,112.1,47.1c41.3,12.8,77.6,27.1,109,42.7
		c31.4,15.6,57.6,33.3,78.6,53.1c21,19.8,36.8,42,47.6,66.6c10.7,24.6,16.1,52.5,16.1,83.8c0,33.3-6.5,62.9-19.5,89
		c-13,26-31.5,48-55.4,65.8c-23.9,17.9-52.8,31.6-86.6,41.1c-33.8,9.5-71.5,14.3-113.2,14.3c-25,0-49.9-2.2-74.9-6.5
		c-25-4.3-48.8-11-71.5-20c-22.7-9-43.8-20.3-63.2-33.8c-19.4-13.5-36.3-29.5-50.7-47.9C33,682.9,21.7,662,13.6,638.6
		c-8.2-23.4-12.2-49.3-12.2-77.8H158c0,22.9,3.6,42.3,10.9,58.3c7.3,16,17.4,28.9,30.4,38.8c13,9.9,28.7,17.1,47.1,21.6
		c18.4,4.5,38.8,6.8,61.4,6.8c20.1,0,37.6-2.2,52.5-6.5c14.9-4.3,27.2-10.3,36.9-17.9c9.7-7.6,16.9-16.7,21.6-27.3
		C423.5,623.9,425.9,612.5,425.9,600.4z"/>
	<path class="st0" d="M882.7,573.3l-54.1,54.1v171.7H678.2V0h150.3v442.7l29.1-37.5l144.1-169.1h180.5L978.9,470.8L1200,799.1
		h-172.7L882.7,573.3z"/>
</g>
</svg>
