<?xml version="1.0" encoding="UTF-8" standalone="no"?>
<svg width="1199px" height="810px" viewBox="0 0 1199 810" version="1.1" xmlns="http://www.w3.org/2000/svg" xmlns:xlink="http://www.w3.org/1999/xlink">
    <!-- Generator: Sketch 40.1 (33804) - http://www.bohemiancoding.com/sketch -->
    <title>Group</title>
    <desc>Created with Sketch.</desc>
    <defs></defs>
    <g id="Page-1" stroke="none" stroke-width="1" fill="none" fill-rule="evenodd">
        <g id="Desktop-HD" transform="translate(-150.000000, -478.000000)" fill="#FFFFFF">
            <g id="Group" transform="translate(150.000000, 478.000000)">
                <g id="Shape">
                    <g>
                        <path d="M424.9,600.4 C424.9,587.2 423,575.3 419.2,564.8 C415.4,554.2 408,544.4 397.1,535.4 C386.2,526.4 371.1,517.5 351.8,508.9 C332.6,500.2 307.7,491 277.1,481.3 C242.4,470.2 209.7,457.7 179,443.8 C148.3,429.9 121.4,413.5 98.4,394.6 C75.3,375.7 57.1,353.9 43.8,329.3 C30.4,304.7 23.8,275.9 23.8,242.9 C23.8,211.3 30.6,182.5 44.3,156.3 C58,130.1 77.2,107.8 102,89.4 C126.8,71 156.3,56.7 190.4,46.5 C224.6,36.3 262.1,31.2 303,31.2 C345,31.2 383.1,37 417.5,48.6 C451.8,60.2 481.1,76.4 505.4,97.2 C529.7,118 548.4,142.7 561.6,171.3 C574.8,199.9 581.4,231.2 581.4,265.2 L425.4,265.2 C425.4,249.3 422.9,234.5 417.9,221 C412.9,207.5 405.2,195.9 394.7,186.1 C384.3,176.4 371.3,168.9 355.7,163.5 C340.1,158.1 321.7,155.4 300.6,155.4 C280.1,155.4 262.4,157.7 247.3,162.2 C232.2,166.7 219.7,173 209.8,180.9 C199.9,188.9 192.5,198.2 187.4,209 C182.4,219.8 179.9,231.2 179.9,243.3 C179.9,268.3 192.6,289.2 218.1,306 C243.6,322.8 281,338.5 330.2,353.1 C371.5,365.9 407.8,380.2 439.2,395.8 C470.6,411.4 496.8,429.1 517.8,448.9 C538.8,468.7 554.6,490.9 565.4,515.5 C576.1,540.1 581.5,568 581.5,599.3 C581.5,632.6 575,662.2 562,688.3 C549,714.3 530.5,736.3 506.6,754.1 C482.7,772 453.8,785.7 420,795.2 C386.2,804.7 348.5,809.5 306.8,809.5 C281.8,809.5 256.9,807.3 231.9,803 C206.9,798.7 183.1,792 160.4,783 C137.7,774 116.6,762.7 97.2,749.2 C77.8,735.7 60.9,719.7 46.5,701.3 C32,682.9 20.7,662 12.6,638.6 C4.4,615.2 0.4,589.3 0.4,560.8 L157,560.8 C157,583.7 160.6,603.1 167.9,619.1 C175.2,635.1 185.3,648 198.3,657.9 C211.3,667.8 227,675 245.4,679.5 C263.8,684 284.2,686.3 306.8,686.3 C326.9,686.3 344.4,684.1 359.3,679.8 C374.2,675.5 386.5,669.5 396.2,661.9 C405.9,654.3 413.1,645.2 417.8,634.6 C422.5,623.9 424.9,612.5 424.9,600.4 L424.9,600.4 Z"></path>
                        <polygon points="881.7 573.3 827.6 627.4 827.6 799.1 677.2 799.1 677.2 0 827.5 0 827.5 442.7 856.6 405.2 1000.7 236.1 1181.2 236.1 977.9 470.8 1199 799.1 1026.3 799.1"></polygon>
                    </g>
                </g>
            </g>
        </g>
    </g>
</svg>